<svg width="400" height="450" viewBox="0 0 400 450" fill="none" xmlns="http://www.w3.org/2000/svg">
<path d="M74.0823 82H326.082L297.704 405H102.461L74.0823 82Z" fill="#F3F3F3"/>
<path d="M269.082 20.245L241.919 13L223.082 83H252.192L269.082 20.245Z" fill="black"/>
<path d="M252.082 83H223.11L137.082 404H166.054L252.082 83Z" fill="#4F4F4F"/>
<path d="M252.082 83H223.11L137.082 404H166.054L252.082 83Z" fill="white" fill-opacity="0.2"/>
<path d="M333.402 83H66.7584C63.0704 83 60.0823 80.0128 60.0823 76.3258V75.6742C60.0823 71.9872 63.0704 69 66.7584 69H333.406C337.094 69 340.082 71.9872 340.082 75.6742V76.3258C340.078 80.0128 337.09 83 333.402 83Z" fill="#E6E6E6"/>
<path d="M80.0823 152.262L102.012 404H298.152L320.082 152.262C320.082 152.262 248.38 164.102 207.402 152.262C166.424 140.422 80.0823 152.262 80.0823 152.262Z" fill="#00C3E0"/>
<path d="M80.0823 152.262L102.012 404H298.152L320.082 152.262C320.082 152.262 248.38 164.102 207.402 152.262C166.424 140.422 80.0823 152.262 80.0823 152.262Z" fill="white" fill-opacity="0.2"/>
<path d="M320.082 152.262L298.152 404H102.012L80.0823 152.262C80.0823 152.262 151.784 164.102 192.763 152.262C233.741 140.422 320.082 152.262 320.082 152.262Z" fill="#00C3E0"/>
<g clip-path="url(#clip0_13_507)">
<rect width="19" height="45" transform="translate(190.082 405)" fill="#E0E0E0"/>
</g>
<rect x="174.344" y="423.078" width="50.3182" height="10.0636" fill="#4F4F4F"/>
<rect x="218.258" y="437.716" width="19.2124" height="10.0636" transform="rotate(-90 218.258 437.716)" fill="#4F4F4F"/>
<defs>
<clipPath id="clip0_13_507">
<rect width="19" height="45" fill="white" transform="translate(190.082 405)"/>
</clipPath>
</defs>
</svg>
