<svg width="18" height="18" viewBox="0 0 18 18" fill="none" xmlns="http://www.w3.org/2000/svg">
<path fill-rule="evenodd" clip-rule="evenodd" d="M12.4983 1.09761C12.3717 0.971018 12.2 0.899902 12.021 0.899902C11.842 0.899902 11.6703 0.971018 11.5437 1.09761L3.27054 9.37075C3.18574 9.45556 3.12506 9.56143 3.09475 9.67746L2.19475 13.123C2.13419 13.3549 2.20109 13.6015 2.37054 13.7709C2.53999 13.9404 2.78657 14.0073 3.01843 13.9467L6.46401 13.0467C6.58005 13.0164 6.68592 12.9557 6.77072 12.8709L15.0439 4.59778C15.3075 4.33418 15.3075 3.90679 15.0439 3.64319L12.4983 1.09761ZM4.35464 10.1958L12.021 2.5295L13.612 4.12049L5.94563 11.7868L3.79214 12.3493L4.35464 10.1958Z" fill="#9198A1"/>
<path d="M2.47505 15.2999C2.10226 15.2999 1.80005 15.6021 1.80005 15.9749C1.80005 16.3477 2.10226 16.6499 2.47505 16.6499H15.975C16.3478 16.6499 16.65 16.3477 16.65 15.9749C16.65 15.6021 16.3478 15.2999 15.975 15.2999H2.47505Z" fill="#9198A1"/>
</svg>
