<svg width="40" height="40" viewBox="0 0 40 40" fill="none" xmlns="http://www.w3.org/2000/svg">
<rect width="40" height="40" rx="20" fill="#F0F0F2"/>
<rect x="12" y="19" width="16" height="2.5" rx="1.25" fill="#9198A1"/>
<rect x="12" y="25" width="7" height="2.5" rx="1.25" fill="#9198A1"/>
<rect x="12" y="13" width="16" height="2.5" rx="1.25" fill="#9198A1"/>
<path d="M26.6973 23.9229C26.9979 23.6761 27.4414 23.6939 27.7217 23.9756C28.0196 24.275 28.0196 24.7601 27.7217 25.0596L24.1162 28.6797C23.9671 28.8288 23.7707 28.9043 23.5752 28.9043C23.4035 28.9043 23.2318 28.8468 23.0918 28.7324L23.0342 28.6797L20.9736 26.6113V26.6104C20.6758 26.3109 20.6758 25.8258 20.9736 25.5264L21.0322 25.4736C21.3329 25.228 21.7767 25.2449 22.0566 25.5264H22.0557L23.5742 27.0518L26.6387 23.9756L26.6973 23.9229Z" fill="#9198A1" stroke="#9198A1" stroke-width="0.5"/>
</svg>
